<?xml version="1.0" encoding="utf-8"?>
<svg viewBox="0 0 126 24" width="126px" height="24px" fill="none" xmlns="http://www.w3.org/2000/svg">
  <path d="M24.8873 6.12125C24.4204 5.24721 23.7396 4.56638 22.8655 4.09715C21.9869 3.62793 21.122 3.38872 18.8288 3.38872H18.5528L19.505 2.27777C20.0019 1.70044 19.9329 0.824096 19.3555 0.329573C18.7874 -0.158051 17.9203 -0.0982456 17.4073 0.479082L14.9117 3.39102H10.714L8.20454 0.462979C7.70771 -0.0982473 6.84056 -0.158048 6.27243 0.331875C5.6951 0.828699 5.6284 1.70274 6.12293 2.28007L7.07518 3.39102H6.76696C4.50824 3.39102 3.625 3.63023 2.78085 4.07415L2.73025 4.10175C1.8562 4.56868 1.17536 5.24951 0.708438 6.12585C0.239213 7.00449 0 7.87163 0 10.1648V17.2952C0.00460024 19.5079 0.243815 20.3796 0.680838 21.2169L0.708438 21.2675C1.17536 22.1415 1.8562 22.8223 2.73025 23.2916L2.80845 23.333C3.6434 23.7654 4.51974 24 6.76696 24H18.8932C21.1036 23.9954 21.9754 23.7562 22.8126 23.3192L22.8632 23.2916C23.7373 22.8246 24.4181 22.1438 24.885 21.2675C25.3543 20.3888 25.5935 19.5217 25.5935 17.2285V10.1648C25.5935 7.90384 25.3543 7.02059 24.9126 6.17645L24.8873 6.12125ZM22.7735 10.1602V17.2561C22.7735 18.1347 22.7321 18.7742 22.6516 19.2112L22.647 19.2388C22.5941 19.5102 22.5343 19.6781 22.3986 19.9334C22.1962 20.3129 21.9133 20.5958 21.5337 20.7982C21.2807 20.934 21.1128 20.9938 20.8414 21.0467C20.3998 21.1318 19.7397 21.1732 18.8288 21.1732H6.73706C5.85841 21.1732 5.21898 21.1318 4.78426 21.0513L4.75665 21.0467C4.48524 20.9938 4.31733 20.934 4.06432 20.7982C3.6848 20.5958 3.40188 20.3129 3.19947 19.9334C3.06376 19.6804 3.00396 19.5125 2.95106 19.2388C2.87055 18.8202 2.82915 18.2129 2.82455 17.3803V10.128C2.82455 9.2494 2.86596 8.60997 2.94646 8.17295L2.95106 8.14535C3.00396 7.87393 3.06376 7.70373 3.19947 7.45071C3.40188 7.0712 3.6848 6.78828 4.06432 6.58587C4.31733 6.45017 4.48524 6.39036 4.75665 6.33746C5.17298 6.25696 5.78021 6.21555 6.61285 6.21095H6.73706H18.861C19.7397 6.21095 20.3791 6.25236 20.8138 6.33286L20.8414 6.33746C21.1128 6.39036 21.2807 6.45017 21.5337 6.58587C21.9133 6.78828 22.1962 7.0712 22.3986 7.45071C22.5343 7.70373 22.5941 7.87163 22.647 8.14535C22.7321 8.58927 22.7735 9.2471 22.7735 10.1602Z" fill="#F26183"/>
  <path d="M8.28004 10.1211C9.29669 10.1211 10.1201 10.9445 10.1201 11.9612V15.4113C10.1201 16.428 9.29669 17.2514 8.28004 17.2514C7.26339 17.2514 6.43994 16.428 6.43994 15.4113V11.9612C6.43994 10.9445 7.26339 10.1211 8.28004 10.1211Z" fill="#F26183"/>
  <path d="M17.4807 10.1211C18.4974 10.1211 19.3208 10.9445 19.3208 11.9612V15.4113C19.3208 16.428 18.4974 17.2514 17.4807 17.2514C16.4641 17.2514 15.6406 16.428 15.6406 15.4113V11.9612C15.6406 10.9445 16.4641 10.1211 17.4807 10.1211Z" fill="#F26183"/>
  <path d="M24.8873 6.12125C24.4204 5.24721 23.7396 4.56638 22.8655 4.09715C21.9869 3.62793 21.122 3.38872 18.8288 3.38872H18.5528L19.505 2.27777C20.0019 1.70044 19.9329 0.824096 19.3555 0.329573C18.7874 -0.158051 17.9203 -0.0982456 17.4073 0.479082L14.9117 3.39102H10.714L8.20454 0.462979C7.70771 -0.0982473 6.84056 -0.158048 6.27243 0.331875C5.6951 0.828699 5.6284 1.70274 6.12293 2.28007L7.07518 3.39102H6.76696C4.50824 3.39102 3.625 3.63023 2.78085 4.07415L2.73025 4.10175C1.8562 4.56868 1.17536 5.24951 0.708438 6.12585C0.239213 7.00449 0 7.87163 0 10.1648V17.2952C0.00460024 19.5079 0.243815 20.3796 0.680838 21.2169L0.708438 21.2675C1.17536 22.1415 1.8562 22.8223 2.73025 23.2916L2.80845 23.333C3.6434 23.7654 4.51974 24 6.76696 24H18.8932C21.1036 23.9954 21.9754 23.7562 22.8126 23.3192L22.8632 23.2916C23.7373 22.8246 24.4181 22.1438 24.885 21.2675C25.3543 20.3888 25.5935 19.5217 25.5935 17.2285V10.1648C25.5935 7.90384 25.3543 7.02059 24.9126 6.17645L24.8873 6.12125ZM22.7735 10.1602V17.2561C22.7735 18.1347 22.7321 18.7742 22.6516 19.2112L22.647 19.2388C22.5941 19.5102 22.5343 19.6781 22.3986 19.9334C22.1962 20.3129 21.9133 20.5958 21.5337 20.7982C21.2807 20.934 21.1128 20.9938 20.8414 21.0467C20.3998 21.1318 19.7397 21.1732 18.8288 21.1732H6.73706C5.85841 21.1732 5.21898 21.1318 4.78426 21.0513L4.75665 21.0467C4.48524 20.9938 4.31733 20.934 4.06432 20.7982C3.6848 20.5958 3.40188 20.3129 3.19947 19.9334C3.06376 19.6804 3.00396 19.5125 2.95106 19.2388C2.87055 18.8202 2.82915 18.2129 2.82455 17.3803V10.128C2.82455 9.2494 2.86596 8.60997 2.94646 8.17295L2.95106 8.14535C3.00396 7.87393 3.06376 7.70373 3.19947 7.45071C3.40188 7.0712 3.6848 6.78828 4.06432 6.58587C4.31733 6.45017 4.48524 6.39036 4.75665 6.33746C5.17298 6.25696 5.78021 6.21555 6.61285 6.21095H6.73706H18.861C19.7397 6.21095 20.3791 6.25236 20.8138 6.33286L20.8414 6.33746C21.1128 6.39036 21.2807 6.45017 21.5337 6.58587C21.9133 6.78828 22.1962 7.0712 22.3986 7.45071C22.5343 7.70373 22.5941 7.87163 22.647 8.14535C22.7321 8.58927 22.7735 9.2471 22.7735 10.1602Z" fill="#F26183"/>
  <path d="M 27.9 1.134 L 28.712 1.134 Q 28.846 1.134 28.95 1.186 Q 29.053 1.237 29.11 1.333 Q 29.168 1.429 29.168 1.552 L 29.168 1.757 Q 29.168 1.884 29.108 1.982 Q 29.049 2.08 28.942 2.134 Q 28.835 2.188 28.695 2.188 L 28.204 2.188 L 28.204 2.674 L 27.9 2.674 Z M 28.69 1.924 Q 28.767 1.924 28.816 1.874 Q 28.864 1.825 28.864 1.743 L 28.864 1.565 Q 28.864 1.488 28.821 1.443 Q 28.778 1.398 28.708 1.398 L 28.204 1.398 L 28.204 1.924 Z" transform="matrix(10.553681, 0, 0, 11.100443, -263.602818, -7.503427)" style="fill: rgb(242, 97, 131);"/>
  <path d="M 29.325 1.576 L 29.602 1.576 L 29.602 1.717 Q 29.644 1.653 29.722 1.613 Q 29.8 1.572 29.886 1.572 L 30.036 1.572 L 30.036 1.831 L 29.886 1.831 Q 29.769 1.831 29.697 1.902 Q 29.624 1.972 29.624 2.082 L 29.624 2.674 L 29.325 2.674 Z" transform="matrix(10.553681, 0, 0, 11.100443, -263.602818, -7.503427)" style="fill: rgb(242, 97, 131);"/>
  <path d="M 30.56 2.692 Q 30.421 2.692 30.314 2.64 Q 30.208 2.588 30.148 2.495 Q 30.089 2.401 30.089 2.28 L 30.089 1.996 Q 30.089 1.867 30.148 1.768 Q 30.208 1.669 30.314 1.614 Q 30.421 1.559 30.56 1.559 L 30.736 1.559 Q 30.947 1.559 31.075 1.677 Q 31.202 1.796 31.202 1.994 L 31.202 2.227 L 30.388 2.227 L 30.388 2.28 Q 30.388 2.353 30.434 2.397 Q 30.481 2.441 30.56 2.441 L 30.731 2.441 Q 30.808 2.441 30.856 2.407 Q 30.903 2.373 30.903 2.318 L 31.198 2.318 Q 31.198 2.428 31.138 2.513 Q 31.079 2.599 30.972 2.645 Q 30.866 2.692 30.727 2.692 L 30.56 2.692 Z M 30.907 2.012 L 30.907 1.994 Q 30.907 1.908 30.861 1.857 Q 30.815 1.805 30.738 1.805 L 30.56 1.805 Q 30.481 1.805 30.432 1.86 Q 30.384 1.915 30.384 2.005 L 30.384 2.012 Z" transform="matrix(10.553681, 0, 0, 11.100443, -263.602818, -7.503427)" style="fill: rgb(242, 97, 131);"/>
  <path d="M 32.658 1.559 Q 32.825 1.559 32.926 1.668 Q 33.027 1.776 33.027 1.952 L 33.027 2.674 L 32.728 2.674 L 32.728 1.952 Q 32.728 1.891 32.699 1.855 Q 32.671 1.818 32.625 1.818 L 32.53 1.818 Q 32.468 1.818 32.422 1.863 Q 32.376 1.908 32.365 1.983 L 32.365 2.674 L 32.066 2.674 L 32.066 1.955 Q 32.066 1.893 32.037 1.856 Q 32.009 1.818 31.962 1.818 L 31.877 1.818 Q 31.813 1.818 31.764 1.875 Q 31.716 1.933 31.703 2.025 L 31.703 2.674 L 31.404 2.674 L 31.404 1.576 L 31.681 1.576 L 31.681 1.704 Q 31.72 1.638 31.783 1.598 Q 31.846 1.559 31.91 1.559 L 32.033 1.559 Q 32.112 1.559 32.177 1.6 Q 32.242 1.642 32.279 1.717 Q 32.328 1.642 32.395 1.6 Q 32.462 1.559 32.537 1.559 L 32.658 1.559 Z" transform="matrix(10.553681, 0, 0, 11.100443, -263.602818, -7.503427)" style="fill: rgb(242, 97, 131);"/>
  <path d="M 33.458 1.473 Q 33.372 1.473 33.32 1.423 Q 33.269 1.374 33.269 1.292 Q 33.269 1.211 33.32 1.162 Q 33.372 1.112 33.458 1.112 Q 33.544 1.112 33.595 1.162 Q 33.647 1.211 33.647 1.292 Q 33.647 1.374 33.595 1.423 Q 33.544 1.473 33.458 1.473 Z M 33.308 1.576 L 33.608 1.576 L 33.608 2.674 L 33.308 2.674 Z" transform="matrix(10.553681, 0, 0, 11.100443, -263.602818, -7.503427)" style="fill: rgb(242, 97, 131);"/>
  <path d="M 34.274 2.692 Q 34.1 2.692 33.995 2.574 Q 33.889 2.456 33.889 2.265 L 33.889 1.576 L 34.188 1.576 L 34.188 2.269 Q 34.188 2.342 34.225 2.387 Q 34.261 2.432 34.32 2.432 L 34.448 2.432 Q 34.521 2.432 34.58 2.372 Q 34.639 2.311 34.664 2.212 L 34.664 1.576 L 34.963 1.576 L 34.963 2.674 L 34.686 2.674 L 34.686 2.533 Q 34.635 2.604 34.561 2.648 Q 34.488 2.692 34.419 2.692 L 34.274 2.692 Z" transform="matrix(10.553681, 0, 0, 11.100443, -263.602818, -7.503427)" style="fill: rgb(242, 97, 131);"/>
  <path d="M 36.472 1.559 Q 36.639 1.559 36.741 1.668 Q 36.842 1.776 36.842 1.952 L 36.842 2.674 L 36.543 2.674 L 36.543 1.952 Q 36.543 1.891 36.514 1.855 Q 36.485 1.818 36.439 1.818 L 36.345 1.818 Q 36.283 1.818 36.237 1.863 Q 36.191 1.908 36.18 1.983 L 36.18 2.674 L 35.88 2.674 L 35.88 1.955 Q 35.88 1.893 35.852 1.856 Q 35.823 1.818 35.777 1.818 L 35.691 1.818 Q 35.627 1.818 35.579 1.875 Q 35.531 1.933 35.517 2.025 L 35.517 2.674 L 35.218 2.674 L 35.218 1.576 L 35.495 1.576 L 35.495 1.704 Q 35.535 1.638 35.598 1.598 Q 35.66 1.559 35.724 1.559 L 35.847 1.559 Q 35.927 1.559 35.991 1.6 Q 36.056 1.642 36.094 1.717 Q 36.142 1.642 36.209 1.6 Q 36.276 1.559 36.351 1.559 L 36.472 1.559 Z" transform="matrix(10.553681, 0, 0, 11.100443, -263.602818, -7.503427)" style="fill: rgb(242, 97, 131);"/>
</svg>