<svg width="24" height="24" viewBox="0 0 24 24" fill="none" xmlns="http://www.w3.org/2000/svg">
<g id="ICON/24/&#229;&#142;&#134;&#229;&#143;&#178;&#232;&#174;&#176;&#229;&#189;&#149;">
<rect id="&#231;&#159;&#169;&#229;&#189;&#162;" opacity="0.01" width="24" height="24" fill="#1A1A1A"/>
<g id="&#229;&#141;&#160;&#228;&#189;&#141;" opacity="0.01">
<path id="Rectangle 3 Copy 2" opacity="0.3" d="M4 4H20V20H4V4Z" fill="#D8D8D8" stroke="#979797" stroke-width="8"/>
<rect id="Rectangle Copy 2" opacity="0.3" x="2.69919" y="2.66003" width="18.6016" height="18.68" stroke="#979797"/>
<rect id="Rectangle Copy 2_2" opacity="0.3" x="3.93835" y="1.45996" width="16.1233" height="21.08" stroke="#979797"/>
<rect id="Rectangle Copy 2_3" opacity="0.3" x="1.45999" y="3.97998" width="21.08" height="16.04" stroke="#979797"/>
<circle id="Oval 2" opacity="0.3" cx="12" cy="12" r="10.54" stroke="#979797"/>
</g>
<g id="&#231;&#188;&#150;&#231;&#187;&#132; 4">
<path id="&#232;&#183;&#175;&#229;&#190;&#132; 2" d="M9.50006 8V16" stroke="#F26183" stroke-width="1.5" stroke-linecap="round" stroke-linejoin="round"/>
<path id="&#232;&#183;&#175;&#229;&#190;&#132; 3" d="M12.5001 12H6.50006" stroke="#F26183" stroke-width="1.5" stroke-linecap="round" stroke-linejoin="round"/>
<path id="&#231;&#159;&#169;&#229;&#189;&#162;_2" d="M16.0001 4H3.00006C1.89549 4 1.00006 4.89543 1.00006 6V18C1.00006 19.1046 1.89549 20 3.00006 20H16.0001C17.1046 20 18.0001 19.1046 18.0001 18V6C18.0001 4.89543 17.1046 4 16.0001 4Z" stroke="#333333" stroke-width="1.5" stroke-linejoin="round"/>
<path id="&#231;&#159;&#169;&#229;&#189;&#162;_3" d="M22.3269 8.24856L18.3269 9.72548C18.1305 9.798 18.0001 9.98518 18.0001 10.1945V13.8055C18.0001 14.0148 18.1305 14.202 18.3269 14.2745L22.3269 15.7514C22.6534 15.872 23.0001 15.6304 23.0001 15.2824V8.71761C23.0001 8.36958 22.6534 8.12801 22.3269 8.24856Z" stroke="#333333" stroke-width="1.5" stroke-linejoin="round"/>
</g>
</g>
</svg>
